<svg width="213.332568359375px" height="71.80742187499999px" xmlns="http://www.w3.org/2000/svg" viewBox="143.3337158203125 39.096289062500006 213.332568359375 71.80742187499999" style="background-image: none;" preserveAspectRatio="xMidYMid"><defs><filter id="editing-hole" x="-100%" y="-100%" width="300%" height="300%"><feFlood flood-color="#2b78b5" result="black"></feFlood><feMorphology operator="dilate" radius="2" in="SourceGraphic" result="erode"></feMorphology><feGaussianBlur in="erode" stdDeviation="4" result="blur"></feGaussianBlur><feOffset in="blur" dx="2" dy="2" result="offset"></feOffset><feComposite operator="atop" in="offset" in2="black" result="merge"></feComposite><feComposite operator="in" in="merge" in2="SourceGraphic" result="inner-shadow"></feComposite></filter></defs><g filter="url(#editing-hole)"><g transform="translate(178.8299987912178, 85.65312480926514)"><path d="M4.81 0L0.70-19.05L2.93-19.05L5.02-8.47L6.18-2.29L6.29-2.29L6.29-2.29Q6.73-4.35 7.66-8.47L7.66-8.47L10.41-19.05L12.38-19.05L15.11-8.47L15.11-8.47Q15.46-6.90 15.66-6.12L15.66-6.12L16.53-2.29L16.65-2.29L16.96-4.00L16.96-4.00Q17.46-6.76 17.78-8.47L17.78-8.47L19.87-19.05L21.95-19.05L17.92 0L15.37 0L12.33-11.86L12.33-11.86Q12.21-12.41 12.11-12.85L12.11-12.85L12.11-12.85Q12.01-13.28 11.95-13.60L11.95-13.60L11.95-13.60Q11.72-14.65 11.40-16.18L11.40-16.18L11.28-16.18L10.29-11.86L7.34 0L4.81 0ZM35.87-7.83L35.87-7.83Q35.87-7.08 35.79-6.55L35.79-6.55L26.07-6.55L26.07-6.55Q26.22-4.09 27.59-2.73L27.59-2.73L27.59-2.73Q28.97-1.36 30.97-1.36L30.97-1.36L30.97-1.36Q32.83-1.36 34.54-2.49L34.54-2.49L35.32-1.10L35.32-1.10Q34.28-0.43 33.18-0.04L33.18-0.04L33.18-0.04Q32.07 0.35 30.71 0.35L30.71 0.35L30.71 0.35Q28.86 0.35 27.33-0.54L27.33-0.54L27.33-0.54Q25.81-1.42 24.93-3.10L24.93-3.10L24.93-3.10Q24.04-4.79 24.04-7.02L24.04-7.02L24.04-7.02Q24.04-9.22 24.93-10.90L24.93-10.90L24.93-10.90Q25.81-12.59 27.26-13.50L27.26-13.50L27.26-13.50Q28.71-14.41 30.33-14.41L30.33-14.41L30.33-14.41Q32.94-14.41 34.41-12.66L34.41-12.66L34.41-12.66Q35.87-10.90 35.87-7.83L35.87-7.83ZM26.13-8.09L33.99-8.09L33.99-8.09Q33.99-10.32 33.03-11.51L33.03-11.51L33.03-11.51Q32.07-12.70 30.36-12.70L30.36-12.70L30.36-12.70Q28.80-12.70 27.58-11.51L27.58-11.51L27.58-11.51Q26.36-10.32 26.13-8.09L26.13-8.09ZM45.44 0.35L45.44 0.35Q44.46 0.35 43.38-0.13L43.38-0.13L43.38-0.13Q42.31-0.61 41.38-1.45L41.38-1.45L41.30-1.45L41.09 0L39.41 0L39.41-20.71L41.50-20.71L41.50-14.96L41.44-12.38L41.44-12.38Q43.79-14.41 45.96-14.41L45.96-14.41L45.96-14.41Q48.66-14.41 50.10-12.48L50.10-12.48L50.10-12.48Q51.53-10.56 51.53-7.25L51.53-7.25L51.53-7.25Q51.53-4.93 50.69-3.20L50.69-3.20L50.69-3.20Q49.85-1.48 48.46-0.57L48.46-0.57L48.46-0.57Q47.07 0.35 45.44 0.35L45.44 0.35ZM45.09-1.45L45.09-1.45Q46.31-1.45 47.28-2.16L47.28-2.16L47.28-2.16Q48.26-2.87 48.81-4.18L48.81-4.18L48.81-4.18Q49.36-5.48 49.36-7.22L49.36-7.22L49.36-7.22Q49.36-9.74 48.42-11.18L48.42-11.18L48.42-11.18Q47.47-12.62 45.47-12.62L45.47-12.62L45.47-12.62Q43.67-12.62 41.50-10.59L41.50-10.59L41.50-2.99L41.50-2.99Q42.43-2.20 43.37-1.83L43.37-1.83L43.37-1.83Q44.31-1.45 45.09-1.45L45.09-1.45ZM68.47 0.35L68.47 0.35Q66.09 0.35 64.22-0.84L64.22-0.84L64.22-0.84Q62.35-2.03 61.29-4.26L61.29-4.26L61.29-4.26Q60.23-6.50 60.23-9.51L60.23-9.51L60.23-9.51Q60.23-12.50 61.31-14.75L61.31-14.75L61.31-14.75Q62.38-16.99 64.29-18.20L64.29-18.20L64.29-18.20Q66.21-19.40 68.61-19.40L68.61-19.40L68.61-19.40Q70.21-19.40 71.54-18.73L71.54-18.73L71.54-18.73Q72.88-18.07 73.78-17.08L73.78-17.08L72.59-15.66L72.59-15.66Q70.93-17.52 68.64-17.52L68.64-17.52L68.64-17.52Q66.79-17.52 65.39-16.54L65.39-16.54L65.39-16.54Q64.00-15.57 63.23-13.79L63.23-13.79L63.23-13.79Q62.47-12.01 62.47-9.57L62.47-9.57L62.47-9.57Q62.47-7.13 63.21-5.32L63.21-5.32L63.21-5.32Q63.94-3.51 65.32-2.52L65.32-2.52L65.32-2.52Q66.70-1.54 68.56-1.54L68.56-1.54L68.56-1.54Q69.89-1.54 70.98-2.09L70.98-2.09L70.98-2.09Q72.06-2.64 73.08-3.74L73.08-3.74L74.27-2.41L74.27-2.41Q73.11-1.04 71.69-0.35L71.69-0.35L71.69-0.35Q70.27 0.35 68.47 0.35L68.47 0.35ZM77.69 0L77.69-14.07L79.43-14.07L79.61-11.48L79.69-11.48L79.69-11.48Q80.42-12.85 81.46-13.63L81.46-13.63L81.46-13.63Q82.50-14.41 83.69-14.41L83.69-14.41L83.69-14.41Q84.53-14.41 85.14-14.12L85.14-14.12L84.74-12.27L84.74-12.27Q83.98-12.50 83.40-12.50L83.40-12.50L83.40-12.50Q82.42-12.50 81.45-11.69L81.45-11.69L81.45-11.69Q80.47-10.88 79.78-9.16L79.78-9.16L79.78 0L77.69 0ZM90.74 0.35L90.74 0.35Q88.94 0.35 87.78-0.70L87.78-0.70L87.78-0.70Q86.62-1.74 86.62-3.63L86.62-3.63L86.62-3.63Q86.62-5.92 88.71-7.15L88.71-7.15L88.71-7.15Q90.80-8.38 95.38-8.87L95.38-8.87L95.38-8.87Q95.38-10.53 94.70-11.59L94.70-11.59L94.70-11.59Q94.02-12.64 92.36-12.64L92.36-12.64L92.36-12.64Q90.36-12.64 88.10-11.11L88.10-11.11L87.26-12.56L87.26-12.56Q90.05-14.41 92.71-14.41L92.71-14.41L92.71-14.41Q95.15-14.41 96.31-12.89L96.31-12.89L96.31-12.89Q97.47-11.37 97.47-8.70L97.47-8.70L97.47 0L95.73 0L95.56-1.71L95.47-1.71L95.47-1.71Q92.97 0.35 90.74 0.35L90.74 0.35ZM91.29-1.36L91.29-1.36Q92.31-1.36 93.28-1.84L93.28-1.84L93.28-1.84Q94.25-2.32 95.38-3.33L95.38-3.33L95.38-7.45L95.38-7.45Q91.76-7.02 90.23-6.12L90.23-6.12L90.23-6.12Q88.71-5.22 88.71-3.74L88.71-3.74L88.71-3.74Q88.71-2.55 89.44-1.96L89.44-1.96L89.44-1.96Q90.16-1.36 91.29-1.36L91.29-1.36ZM106.55-19.31L106.55-19.31Q104.52-19.31 104.52-16.47L104.52-16.47L104.52-14.07L107.56-14.07L107.56-12.33L104.52-12.33L104.52 0L102.40 0L102.40-12.33L100.48-12.33L100.48-13.92L102.40-14.07L102.40-16.50L102.40-16.50Q102.40-18.68 103.40-19.87L103.40-19.87L103.40-19.87Q104.40-21.05 106.37-21.05L106.37-21.05L106.37-21.05Q107.50-21.05 108.63-20.59L108.63-20.59L108.17-18.97L108.17-18.97Q107.36-19.31 106.55-19.31L106.55-19.31ZM114.58 0.35L114.58 0.35Q112.49 0.35 111.59-0.84L111.59-0.84L111.59-0.84Q110.69-2.03 110.69-4.23L110.69-4.23L110.69-12.33L108.58-12.33L108.58-13.92L110.78-14.07L111.04-18.04L112.81-18.04L112.81-14.07L116.67-14.07L116.67-12.33L112.81-12.33L112.81-4.18L112.81-4.18Q112.81-2.78 113.32-2.09L113.32-2.09L113.32-2.09Q113.83-1.39 115.04-1.39L115.04-1.39L115.04-1.39Q115.65-1.39 116.67-1.77L116.67-1.77L117.10-0.17L117.10-0.17Q115.54 0.35 114.58 0.35L114.58 0.35ZM130.65-7.83L130.65-7.83Q130.65-7.08 130.56-6.55L130.56-6.55L120.84-6.55L120.84-6.55Q120.99-4.09 122.37-2.73L122.37-2.73L122.37-2.73Q123.74-1.36 125.74-1.36L125.74-1.36L125.74-1.36Q127.60-1.36 129.31-2.49L129.31-2.49L130.09-1.10L130.09-1.10Q129.05-0.43 127.95-0.04L127.95-0.04L127.95-0.04Q126.85 0.35 125.48 0.35L125.48 0.35L125.48 0.35Q123.63 0.35 122.10-0.54L122.10-0.54L122.10-0.54Q120.58-1.42 119.70-3.10L119.70-3.10L119.70-3.10Q118.81-4.79 118.81-7.02L118.81-7.02L118.81-7.02Q118.81-9.22 119.70-10.90L119.70-10.90L119.70-10.90Q120.58-12.59 122.03-13.50L122.03-13.50L122.03-13.50Q123.48-14.41 125.11-14.41L125.11-14.41L125.11-14.41Q127.72-14.41 129.18-12.66L129.18-12.66L129.18-12.66Q130.65-10.90 130.65-7.83L130.65-7.83ZM120.90-8.09L128.76-8.09L128.76-8.09Q128.76-10.32 127.80-11.51L127.80-11.51L127.80-11.51Q126.85-12.70 125.14-12.70L125.14-12.70L125.14-12.70Q123.57-12.70 122.35-11.51L122.35-11.51L122.35-11.51Q121.13-10.32 120.90-8.09L120.90-8.09ZM134.18 0L134.18-14.07L135.92-14.07L136.10-11.48L136.18-11.48L136.18-11.48Q136.91-12.85 137.95-13.63L137.95-13.63L137.95-13.63Q139.00-14.41 140.19-14.41L140.19-14.41L140.19-14.41Q141.03-14.41 141.64-14.12L141.64-14.12L141.23-12.27L141.23-12.27Q140.48-12.50 139.90-12.50L139.90-12.50L139.90-12.50Q138.91-12.50 137.94-11.69L137.94-11.69L137.94-11.69Q136.97-10.88 136.27-9.16L136.27-9.16L136.27 0L134.18 0Z" fill="#5e6fa3"></path></g></g><style>text {
  font-size: 64px;
  font-family: Arial Black;
  dominant-baseline: central;
  text-anchor: middle;
}</style></svg>